<svg width="20" height="20" viewBox="0 0 20 20" fill="none" xmlns="http://www.w3.org/2000/svg">
<path d="M19.8008 7.03516C19.8008 7.03516 19.6055 5.65625 19.0039 5.05078C18.2422 4.25391 17.3906 4.25 17 4.20312C14.2031 4 10.0039 4 10.0039 4H9.99609C9.99609 4 5.79688 4 3 4.20312C2.60938 4.25 1.75781 4.25391 0.996094 5.05078C0.394531 5.65625 0.203125 7.03516 0.203125 7.03516C0.203125 7.03516 0 8.65625 0 10.2734V11.7891C0 13.4062 0.199219 15.0273 0.199219 15.0273C0.199219 15.0273 0.394531 16.4063 0.992187 17.0117C1.75391 17.8086 2.75391 17.7813 3.19922 17.8672C4.80078 18.0195 10 18.0664 10 18.0664C10 18.0664 14.2031 18.0586 17 17.8594C17.3906 17.8125 18.2422 17.8086 19.0039 17.0117C19.6055 16.4063 19.8008 15.0273 19.8008 15.0273C19.8008 15.0273 20 13.4102 20 11.7891V10.2734C20 8.65625 19.8008 7.03516 19.8008 7.03516ZM7.93359 13.6289V8.00781L13.3359 10.8281L7.93359 13.6289Z" fill="#F3F4F5"/>
</svg>
