<svg width="132" height="39" viewBox="0 0 132 39" fill="none" xmlns="http://www.w3.org/2000/svg">
<rect width="132" height="39" rx="3" fill="#FFB703"/>
<path d="M8.21505 10.0543C7.65083 10.1821 7.13927 10.4605 6.93615 10.7539C6.47726 11.4084 5.10808 13.8834 5.04038 14.1919C4.71689 15.6288 6.35689 17.9383 9.25322 20.135C9.64441 20.4284 10.1635 20.8046 10.4117 20.9625C10.8406 21.2484 10.8556 21.2559 10.9609 21.113C11.2317 20.7444 11.2317 20.7218 10.8556 20.466C10.6525 20.3381 10.1334 19.9545 9.68955 19.6234L8.87707 19.0216L9.18551 18.4724L9.48643 17.9157L9.23817 17.7653C9.10276 17.6825 8.97487 17.6148 8.9523 17.6148C8.92973 17.6148 8.79432 17.8179 8.65891 18.0662C8.51597 18.3145 8.37303 18.5176 8.34294 18.5176C8.32037 18.5176 7.9367 18.1414 7.49285 17.6901L6.69542 16.8625L6.81579 16.6143C6.89102 16.4864 7.02643 16.2456 7.12423 16.0877C7.33487 15.7491 7.31982 15.6664 7.00386 15.4858L6.77817 15.3504L6.53744 15.7792L6.2967 16.2005L6.16129 16.0275C5.98826 15.8018 5.73248 15.1247 5.6723 14.7561C5.61212 14.38 5.69487 14.1618 6.21395 13.2816L6.63524 12.5594L6.95872 13.2064C7.13175 13.56 7.47028 14.1016 7.70349 14.41C8.66643 15.6664 10.818 17.5245 12.5708 18.6079L13.2629 19.0442L13.4059 18.811C13.4886 18.6831 13.5338 18.5326 13.5187 18.4875C13.4961 18.4423 13.2178 18.2392 12.8943 18.0286C10.2989 16.3961 8.25267 14.4176 7.5079 12.8302C6.88349 11.4987 7.40258 10.7088 8.96734 10.6335C11.4875 10.5132 15.7154 12.1833 19.1233 14.6508L19.8982 15.2075L20.1013 14.9667L20.3119 14.7185L20.1013 14.5455C19.9884 14.4477 19.4543 14.0715 18.9127 13.7029C16.4 12.0027 13.6917 10.7614 11.2468 10.2047C10.1936 9.96398 8.88459 9.89628 8.21505 10.0543Z" fill="#03045E"/>
<path d="M9.11774 11.5139C8.97481 11.5515 8.76416 11.6719 8.6438 11.7923C8.32784 12.0932 8.33536 12.6048 8.65884 13.169C9.17793 14.0717 10.9007 15.6064 12.7438 16.8176C13.7368 17.4646 14.6697 18.0213 14.6922 17.9837C14.8276 17.7956 14.9706 17.5323 14.9706 17.4721C14.9706 17.4345 14.775 17.2916 14.5418 17.1637C13.6842 16.6822 11.9765 15.5086 11.164 14.8466C9.55407 13.5301 8.73407 12.4392 9.16288 12.206C9.86251 11.8299 12.7438 12.7627 15.3843 14.2071C16.2946 14.7037 17.7164 15.5688 18.0475 15.8246C18.228 15.96 18.228 15.96 18.401 15.7042C18.4988 15.5613 18.5816 15.4259 18.5816 15.4108C18.5816 15.3582 17.2801 14.5306 16.4451 14.0492C13.3531 12.2662 10.2988 11.213 9.11774 11.5139Z" fill="#03045E"/>
<path d="M21.5679 11.5739C21.5378 11.5964 21.5152 11.7845 21.5152 11.9801V12.3412L21.124 12.3638L20.7253 12.3864L20.7027 12.7023L20.6802 13.0258H21.0939H21.5152V13.4396V13.8533H21.8538H22.1923V13.4396V13.0258H22.606H23.0198V12.6873V12.3487H22.606H22.1923V11.935V11.5212H21.9064C21.7484 11.5212 21.5905 11.5438 21.5679 11.5739Z" fill="#03045E"/>
<path d="M23.8103 14.3876C19.6049 14.9593 13.6393 18.3672 11.0062 21.6924C10.1486 22.7757 9.78 23.6107 9.78 24.4533C9.78 25.01 9.75743 24.9498 10.9837 27.0863C11.6156 28.1771 11.7435 28.3502 12.082 28.5759C14.1508 29.9526 19.966 28.0944 24.7506 24.5135C25.8866 23.6634 27.4514 22.1513 28.0081 21.3613C28.7604 20.3006 29.1215 19.2474 28.9635 18.5703C28.9259 18.3747 28.4895 17.5397 27.9704 16.6294C26.9549 14.8841 26.827 14.7336 25.9919 14.4854C25.5029 14.3424 24.4798 14.2973 23.8103 14.3876ZM26.0822 15.2151C26.6013 15.4784 26.8044 15.8094 26.7593 16.336C26.5862 18.2468 23.2912 21.3689 19.146 23.5505C15.7983 25.3184 12.3604 26.0858 10.9912 25.3786C10.3367 25.0325 10.2314 24.3705 10.6903 23.4076C12.2024 20.2404 18.4615 16.1028 23.1332 15.185C24.0585 14.9969 24.1338 14.9894 24.9538 15.0195C25.5857 15.0345 25.7963 15.0722 26.0822 15.2151ZM27.9328 17.8782C28.2864 18.4951 28.324 18.6004 28.324 19.0067C28.3165 19.3377 28.2563 19.5859 28.1059 19.9245C27.7974 20.6091 27.7372 20.6316 27.4815 20.1802C27.3686 19.9696 27.2407 19.7966 27.2106 19.7966C27.0978 19.7966 26.7066 20.0223 26.7066 20.09C26.7066 20.1276 26.842 20.3834 27.0075 20.6617L27.3009 21.1733L27.1504 21.3839C26.9398 21.6773 25.7587 22.881 25.676 22.881C25.6459 22.881 25.4954 22.6854 25.36 22.4447C25.2171 22.2114 25.0967 22.0008 25.0816 21.9858C25.0666 21.9707 24.9387 22.0384 24.7882 22.1287L24.5249 22.2942L24.8259 22.8434L25.1268 23.3925L24.6604 23.7612C24.1939 24.1223 23.5169 24.6113 23.3438 24.7166C23.2912 24.7467 23.1708 24.6113 23.0279 24.3705C22.6517 23.7236 22.6969 23.7536 22.3884 23.9342L22.1176 24.0997L22.3508 24.5285C22.4862 24.7617 22.6216 24.9874 22.6593 25.0325C22.7044 25.0927 22.569 25.2206 22.253 25.4162C21.7189 25.7548 20.7936 26.2663 20.7334 26.2663C20.7108 26.2663 20.5754 26.0557 20.4174 25.7924C20.267 25.5366 20.1391 25.3184 20.124 25.3034C20.0864 25.2658 19.6501 25.499 19.6049 25.5817C19.5749 25.6193 19.6802 25.8601 19.8382 26.1159C20.0638 26.4995 20.0939 26.5898 20.0037 26.65C19.8231 26.7628 18.1229 27.47 18.0327 27.47C17.98 27.47 17.8145 27.2443 17.6565 26.981C17.4985 26.7102 17.3405 26.492 17.2954 26.492C17.2578 26.492 17.1299 26.5522 17.0171 26.6199C16.9042 26.6876 16.8064 26.7553 16.7914 26.7628C16.7838 26.7703 16.8967 26.981 17.0471 27.2368C17.1976 27.4926 17.3029 27.7182 17.2804 27.7408C17.2202 27.8085 15.7382 28.1922 15.3319 28.2524L14.9859 28.305L14.6624 27.7408L14.3464 27.1766L14.0605 27.3421L13.7747 27.5076L14.0004 27.8913C14.1207 28.1019 14.2185 28.2975 14.2185 28.3276C14.2185 28.4179 13.3383 28.3727 12.9472 28.2524C12.7365 28.1922 12.4582 28.0493 12.3378 27.9364C12.1272 27.7408 11.2394 26.2814 11.2996 26.2287C11.3147 26.2137 11.5629 26.2287 11.8488 26.2738C12.7892 26.4017 14.2336 26.176 15.9413 25.6269C20.7334 24.0771 25.9769 20.2103 27.1655 17.3516C27.3686 16.8551 27.3235 16.825 27.9328 17.8782Z" fill="#03045E"/>
<path d="M23.9603 15.8544C21.9742 16.1177 18.7093 17.5922 15.7979 19.5332C13.857 20.8271 12.4352 22.0834 11.8935 22.9862C11.5776 23.5128 11.5023 24.0544 11.6979 24.3554C12.4577 25.5214 16.8662 24.077 21.1768 21.2484C22.3353 20.481 22.8243 20.1199 23.7572 19.3225C25.5476 17.7728 26.0818 16.4864 25.1264 15.9974C24.9082 15.8845 24.2913 15.8168 23.9603 15.8544ZM24.7878 16.5616C24.9608 16.6293 24.9834 16.6669 24.9458 16.8475C24.7352 17.7126 22.6889 19.5482 20.1988 21.0979C18.2128 22.3317 15.5948 23.5429 14.0676 23.9341C13.2552 24.1447 12.4653 24.1748 12.2922 23.9943C12.1794 23.8814 12.1794 23.8513 12.3449 23.5128C12.9843 22.2339 16.0612 19.8867 19.1832 18.2919C21.7636 16.9829 24.0355 16.2757 24.7878 16.5616Z" fill="#03045E"/>
<path d="M6.84602 21.8573V22.2711L6.45482 22.2936L6.05611 22.3162L6.03354 22.6322L6.01097 22.9557H6.42473H6.84602V23.3694V23.7832H7.18455H7.52308V23.3694V22.9557H7.93684H8.3506V22.6171V22.2786H7.93684H7.52308V21.8648V21.4511H7.18455H6.84602V21.8573Z" fill="#03045E"/>
<path d="M40.0885 24L37.7645 20.01H36.2245V24H34.9505V14.242H38.1005C38.8378 14.242 39.4585 14.368 39.9625 14.62C40.4758 14.872 40.8585 15.2127 41.1105 15.642C41.3625 16.0713 41.4885 16.5613 41.4885 17.112C41.4885 17.784 41.2925 18.3767 40.9005 18.89C40.5178 19.4033 39.9392 19.744 39.1645 19.912L41.6145 24H40.0885ZM36.2245 18.988H38.1005C38.7911 18.988 39.3091 18.82 39.6545 18.484C39.9998 18.1387 40.1725 17.6813 40.1725 17.112C40.1725 16.5333 39.9998 16.0853 39.6545 15.768C39.3185 15.4507 38.8005 15.292 38.1005 15.292H36.2245V18.988ZM50.6081 19.87C50.6081 20.1127 50.5941 20.3693 50.5661 20.64H44.4341C44.4807 21.396 44.7374 21.9887 45.2041 22.418C45.6801 22.838 46.2541 23.048 46.9261 23.048C47.4767 23.048 47.9341 22.922 48.2981 22.67C48.6714 22.4087 48.9327 22.0633 49.0821 21.634H50.4541C50.2487 22.3713 49.8381 22.9733 49.2221 23.44C48.6061 23.8973 47.8407 24.126 46.9261 24.126C46.1981 24.126 45.5447 23.9627 44.9661 23.636C44.3967 23.3093 43.9487 22.8473 43.6221 22.25C43.2954 21.6433 43.1321 20.9433 43.1321 20.15C43.1321 19.3567 43.2907 18.6613 43.6081 18.064C43.9254 17.4667 44.3687 17.0093 44.9381 16.692C45.5167 16.3653 46.1794 16.202 46.9261 16.202C47.6541 16.202 48.2981 16.3607 48.8581 16.678C49.4181 16.9953 49.8474 17.434 50.1461 17.994C50.4541 18.5447 50.6081 19.17 50.6081 19.87ZM49.2921 19.604C49.2921 19.1187 49.1847 18.7033 48.9701 18.358C48.7554 18.0033 48.4614 17.7373 48.0881 17.56C47.7241 17.3733 47.3181 17.28 46.8701 17.28C46.2261 17.28 45.6754 17.4853 45.2181 17.896C44.7701 18.3067 44.5134 18.876 44.4481 19.604H49.2921ZM56.1677 16.188C57.101 16.188 57.857 16.4727 58.4357 17.042C59.0144 17.602 59.3037 18.414 59.3037 19.478V24H58.0437V19.66C58.0437 18.8947 57.8524 18.3113 57.4697 17.91C57.087 17.4993 56.5644 17.294 55.9017 17.294C55.2297 17.294 54.693 17.504 54.2917 17.924C53.8997 18.344 53.7037 18.9553 53.7037 19.758V24H52.4297V16.328H53.7037V17.42C53.9557 17.028 54.2964 16.7247 54.7257 16.51C55.1644 16.2953 55.645 16.188 56.1677 16.188ZM63.0788 17.378V21.9C63.0788 22.2733 63.1581 22.5393 63.3168 22.698C63.4754 22.8473 63.7508 22.922 64.1428 22.922H65.0808V24H63.9328C63.2234 24 62.6914 23.8367 62.3368 23.51C61.9821 23.1833 61.8048 22.6467 61.8048 21.9V17.378H60.8108V16.328H61.8048V14.396H63.0788V16.328H65.0808V17.378H63.0788ZM71.6504 18.974C72.0051 19.03 72.3271 19.1747 72.6164 19.408C72.9151 19.6413 73.1484 19.9307 73.3164 20.276C73.4937 20.6213 73.5824 20.99 73.5824 21.382C73.5824 21.8767 73.4564 22.3247 73.2044 22.726C72.9524 23.118 72.5837 23.4307 72.0984 23.664C71.6224 23.888 71.0577 24 70.4044 24H66.7644V14.242H70.2644C70.9271 14.242 71.4917 14.354 71.9584 14.578C72.4251 14.7927 72.7751 15.0867 73.0084 15.46C73.2417 15.8333 73.3584 16.2533 73.3584 16.72C73.3584 17.2987 73.1997 17.7793 72.8824 18.162C72.5744 18.5353 72.1637 18.806 71.6504 18.974ZM68.0384 18.456H70.1804C70.7777 18.456 71.2397 18.316 71.5664 18.036C71.8931 17.756 72.0564 17.3687 72.0564 16.874C72.0564 16.3793 71.8931 15.992 71.5664 15.712C71.2397 15.432 70.7684 15.292 70.1524 15.292H68.0384V18.456ZM70.2924 22.95C70.9271 22.95 71.4217 22.8007 71.7764 22.502C72.1311 22.2033 72.3084 21.788 72.3084 21.256C72.3084 20.7147 72.1217 20.29 71.7484 19.982C71.3751 19.6647 70.8757 19.506 70.2504 19.506H68.0384V22.95H70.2924ZM82.0983 16.328L77.4783 27.612H76.1623L77.6743 23.916L74.5803 16.328H75.9943L78.4023 22.544L80.7823 16.328H82.0983ZM84.793 22.964H88.209V24H83.519V14.242H84.793V22.964ZM93.048 24.126C92.3293 24.126 91.676 23.9627 91.088 23.636C90.5093 23.3093 90.052 22.8473 89.716 22.25C89.3893 21.6433 89.226 20.9433 89.226 20.15C89.226 19.366 89.394 18.6753 89.73 18.078C90.0753 17.4713 90.542 17.0093 91.13 16.692C91.718 16.3653 92.376 16.202 93.104 16.202C93.832 16.202 94.49 16.3653 95.078 16.692C95.666 17.0093 96.128 17.4667 96.464 18.064C96.8093 18.6613 96.982 19.3567 96.982 20.15C96.982 20.9433 96.8046 21.6433 96.45 22.25C96.1046 22.8473 95.6333 23.3093 95.036 23.636C94.4386 23.9627 93.776 24.126 93.048 24.126ZM93.048 23.006C93.5053 23.006 93.9346 22.8987 94.336 22.684C94.7373 22.4693 95.0593 22.1473 95.302 21.718C95.554 21.2887 95.68 20.766 95.68 20.15C95.68 19.534 95.5586 19.0113 95.316 18.582C95.0733 18.1527 94.756 17.8353 94.364 17.63C93.972 17.4153 93.5473 17.308 93.09 17.308C92.6233 17.308 92.194 17.4153 91.802 17.63C91.4193 17.8353 91.1113 18.1527 90.878 18.582C90.6446 19.0113 90.528 19.534 90.528 20.15C90.528 20.7753 90.64 21.3027 90.864 21.732C91.0973 22.1613 91.4053 22.4833 91.788 22.698C92.1706 22.9033 92.5906 23.006 93.048 23.006ZM98.321 20.15C98.321 19.3567 98.4797 18.666 98.797 18.078C99.1144 17.4807 99.553 17.0187 100.113 16.692C100.682 16.3653 101.331 16.202 102.059 16.202C103.002 16.202 103.776 16.4307 104.383 16.888C104.999 17.3453 105.405 17.98 105.601 18.792H104.229C104.098 18.3253 103.842 17.9567 103.459 17.686C103.086 17.4153 102.619 17.28 102.059 17.28C101.331 17.28 100.743 17.532 100.295 18.036C99.847 18.5307 99.623 19.2353 99.623 20.15C99.623 21.074 99.847 21.788 100.295 22.292C100.743 22.796 101.331 23.048 102.059 23.048C102.619 23.048 103.086 22.9173 103.459 22.656C103.832 22.3947 104.089 22.0213 104.229 21.536H105.601C105.396 22.32 104.985 22.95 104.369 23.426C103.753 23.8927 102.983 24.126 102.059 24.126C101.331 24.126 100.682 23.9627 100.113 23.636C99.553 23.3093 99.1144 22.8473 98.797 22.25C98.4797 21.6527 98.321 20.9527 98.321 20.15ZM106.965 20.136C106.965 19.352 107.124 18.666 107.441 18.078C107.758 17.4807 108.192 17.0187 108.743 16.692C109.303 16.3653 109.924 16.202 110.605 16.202C111.277 16.202 111.86 16.3467 112.355 16.636C112.85 16.9253 113.218 17.2893 113.461 17.728V16.328H114.749V24H113.461V22.572C113.209 23.02 112.831 23.3933 112.327 23.692C111.832 23.9813 111.254 24.126 110.591 24.126C109.91 24.126 109.294 23.958 108.743 23.622C108.192 23.286 107.758 22.8147 107.441 22.208C107.124 21.6013 106.965 20.9107 106.965 20.136ZM113.461 20.15C113.461 19.5713 113.344 19.0673 113.111 18.638C112.878 18.2087 112.56 17.882 112.159 17.658C111.767 17.4247 111.333 17.308 110.857 17.308C110.381 17.308 109.947 17.42 109.555 17.644C109.163 17.868 108.85 18.1947 108.617 18.624C108.384 19.0533 108.267 19.5573 108.267 20.136C108.267 20.724 108.384 21.2373 108.617 21.676C108.85 22.1053 109.163 22.4367 109.555 22.67C109.947 22.894 110.381 23.006 110.857 23.006C111.333 23.006 111.767 22.894 112.159 22.67C112.56 22.4367 112.878 22.1053 113.111 21.676C113.344 21.2373 113.461 20.7287 113.461 20.15ZM118.316 13.64V24H117.042V13.64H118.316ZM123.343 24.126C122.755 24.126 122.228 24.028 121.761 23.832C121.295 23.6267 120.926 23.3467 120.655 22.992C120.385 22.628 120.235 22.2127 120.207 21.746H121.523C121.561 22.1287 121.738 22.4413 122.055 22.684C122.382 22.9267 122.807 23.048 123.329 23.048C123.815 23.048 124.197 22.9407 124.477 22.726C124.757 22.5113 124.897 22.2407 124.897 21.914C124.897 21.578 124.748 21.3307 124.449 21.172C124.151 21.004 123.689 20.8407 123.063 20.682C122.494 20.5327 122.027 20.3833 121.663 20.234C121.309 20.0753 121.001 19.8467 120.739 19.548C120.487 19.24 120.361 18.8387 120.361 18.344C120.361 17.952 120.478 17.5927 120.711 17.266C120.945 16.9393 121.276 16.6827 121.705 16.496C122.135 16.3 122.625 16.202 123.175 16.202C124.025 16.202 124.711 16.4167 125.233 16.846C125.756 17.2753 126.036 17.8633 126.073 18.61H124.799C124.771 18.2087 124.608 17.8867 124.309 17.644C124.02 17.4013 123.628 17.28 123.133 17.28C122.676 17.28 122.312 17.378 122.041 17.574C121.771 17.77 121.635 18.0267 121.635 18.344C121.635 18.596 121.715 18.806 121.873 18.974C122.041 19.1327 122.247 19.2633 122.489 19.366C122.741 19.4593 123.087 19.5667 123.525 19.688C124.076 19.8373 124.524 19.9867 124.869 20.136C125.215 20.276 125.509 20.4907 125.751 20.78C126.003 21.0693 126.134 21.4473 126.143 21.914C126.143 22.334 126.027 22.712 125.793 23.048C125.56 23.384 125.229 23.65 124.799 23.846C124.379 24.0327 123.894 24.126 123.343 24.126Z" fill="#03045E"/>
</svg>
