<svg width="108" height="20" viewBox="0 0 108 20" fill="none" xmlns="http://www.w3.org/2000/svg">
<g clip-path="url(#clip0_511_622)">
<path d="M12.0248 8.33334L9.99984 1.66667L7.97484 8.33334H1.6665L6.8165 12.0083L4.85817 18.3333L9.99984 14.425L15.1498 18.3333L13.1915 12.0083L18.3332 8.33334H12.0248Z" fill="#FFB703"/>
</g>
<g clip-path="url(#clip1_511_622)">
<path d="M34.0248 8.33334L31.9998 1.66667L29.9748 8.33334H23.6665L28.8165 12.0083L26.8582 18.3333L31.9998 14.425L37.1498 18.3333L35.1915 12.0083L40.3332 8.33334H34.0248Z" fill="#FFB703"/>
</g>
<g clip-path="url(#clip2_511_622)">
<path d="M56.0248 8.33334L53.9998 1.66667L51.9748 8.33334H45.6665L50.8165 12.0083L48.8582 18.3333L53.9998 14.425L59.1498 18.3333L57.1915 12.0083L62.3332 8.33334H56.0248Z" fill="#FFB703"/>
</g>
<g clip-path="url(#clip3_511_622)">
<path d="M78.0248 8.33334L75.9998 1.66667L73.9748 8.33334H67.6665L72.8165 12.0083L70.8582 18.3333L75.9998 14.425L81.1498 18.3333L79.1915 12.0083L84.3332 8.33334H78.0248Z" fill="#FFB703"/>
</g>
<g clip-path="url(#clip4_511_622)">
<path d="M100.025 8.33334L97.9998 1.66667L95.9748 8.33334H89.6665L94.8165 12.0083L92.8582 18.3333L97.9998 14.425L103.15 18.3333L101.192 12.0083L106.333 8.33334H100.025Z" fill="#FFB703"/>
</g>
<defs>
<clipPath id="clip0_511_622">
<rect width="20" height="20" fill="white"/>
</clipPath>
<clipPath id="clip1_511_622">
<rect width="20" height="20" fill="white" transform="translate(22)"/>
</clipPath>
<clipPath id="clip2_511_622">
<rect width="20" height="20" fill="white" transform="translate(44)"/>
</clipPath>
<clipPath id="clip3_511_622">
<rect width="20" height="20" fill="white" transform="translate(66)"/>
</clipPath>
<clipPath id="clip4_511_622">
<rect width="20" height="20" fill="white" transform="translate(88)"/>
</clipPath>
</defs>
</svg>
